<svg xmlns="http://www.w3.org/2000/svg" width="0" height="0" style="position:absolute" aria-hidden="true">
  <defs>
    

    <symbol id="asterisk-thick" viewBox="0 0 80 80">
      <g fill="currentColor">
        <rect x="34" y="6" width="12" height="68" rx="4"></rect>
        <rect x="6" y="34" width="68" height="12" rx="4" transform="rotate(45 40 40)"></rect>
        <rect x="6" y="34" width="68" height="12" rx="4" transform="rotate(-45 40 40)"></rect>
        <rect x="6" y="34" width="68" height="12" rx="4"></rect>
      </g>
    </symbol>

    <symbol id="star-thick" viewBox="0 0 80 80">
      <path d="M40 6 L50 30 L76 32 L56 49 L63 74 L40 60 L17 74 L24 49 L4 32 L30 30 Z" fill="currentColor"></path>
    </symbol>

    <symbol id="diamond-thick" viewBox="0 0 80 80">
      <path d="M40 8 L72 40 L40 72 L8 40 Z" fill="currentColor"></path>
    </symbol>

    <symbol id="heart-thick" viewBox="0 0 80 80">
      <path d="M40 70 C 12 52, 4 34, 12 20 C 20 8, 34 10, 40 24 C 46 10, 60 8, 68 20 C 76 34, 68 52, 40 70 Z" fill="currentColor"></path>
    </symbol>

    <symbol id="flower-thick" viewBox="0 0 80 80">
      <g fill="currentColor">
        <circle cx="40" cy="18" r="14"></circle>
        <circle cx="40" cy="62" r="14"></circle>
        <circle cx="18" cy="40" r="14"></circle>
        <circle cx="62" cy="40" r="14"></circle>
        <circle cx="40" cy="40" r="10"></circle>
      </g>
    </symbol>

    <symbol id="sun-thick" viewBox="0 0 80 80">
      <g fill="currentColor">
        <circle cx="40" cy="40" r="16"></circle>
        <rect x="36" y="2" width="8" height="14" rx="2"></rect>
        <rect x="36" y="64" width="8" height="14" rx="2"></rect>
        <rect x="2" y="36" width="14" height="8" rx="2"></rect>
        <rect x="64" y="36" width="14" height="8" rx="2"></rect>
        <rect x="36" y="2" width="8" height="14" rx="2" transform="rotate(45 40 40)"></rect>
        <rect x="36" y="2" width="8" height="14" rx="2" transform="rotate(-45 40 40)"></rect>
        <rect x="36" y="64" width="8" height="14" rx="2" transform="rotate(45 40 40)"></rect>
        <rect x="36" y="64" width="8" height="14" rx="2" transform="rotate(-45 40 40)"></rect>
      </g>
    </symbol>

    <symbol id="blob-thick" viewBox="0 0 80 80">
      <path d="M20 14 C 48 2, 74 14, 76 40 C 78 64, 56 76, 34 74 C 10 72, 2 54, 6 34 C 9 22, 14 16, 20 14 Z" fill="currentColor"></path>
    </symbol>

    <symbol id="sparkle-thick" viewBox="0 0 80 80">
      <path d="M40 4 C 44 30, 50 36, 76 40 C 50 44, 44 50, 40 76 C 36 50, 30 44, 4 40 C 30 36, 36 30, 40 4 Z" fill="currentColor"></path>
    </symbol>

    <symbol id="arrow-thick" viewBox="0 0 120 60">
      <path d="M4 24 L78 24 L78 8 L116 30 L78 52 L78 36 L4 36 Z" fill="currentColor"></path>
    </symbol>

    <symbol id="circle-thick" viewBox="0 0 80 80">
      <circle cx="40" cy="40" r="32" fill="currentColor"></circle>
    </symbol>

    <symbol id="moon-thick" viewBox="0 0 80 80">
      <path d="M58 10 C 36 10, 18 28, 18 50 C 18 62, 24 70, 32 74 C 14 74, 4 58, 4 40 C 4 20, 20 4, 42 4 C 50 4, 54 6, 58 10 Z" fill="currentColor"></path>
    </symbol>

    <symbol id="bolt-thick" viewBox="0 0 60 80">
      <path d="M36 2 L6 44 L24 44 L18 78 L54 30 L36 30 L44 2 Z" fill="currentColor"></path>
    </symbol>

    
    <symbol id="arrow" viewBox="0 0 120 48">
      <path d="M4 26 C 28 22, 56 22, 82 24 C 92 25, 100 26, 108 28" fill="none" stroke="currentColor" stroke-width="3" stroke-linecap="round"></path>
      <path d="M108 28 L 96 18 M108 28 L 94 34" fill="none" stroke="currentColor" stroke-width="3" stroke-linecap="round"></path>
    </symbol>
    <symbol id="arrow-curve" viewBox="0 0 120 72">
      <path d="M6 10 C 40 4, 90 14, 104 52" fill="none" stroke="currentColor" stroke-width="3" stroke-linecap="round"></path>
      <path d="M104 52 L 94 40 M104 52 L 114 42" fill="none" stroke="currentColor" stroke-width="3" stroke-linecap="round"></path>
    </symbol>
    <symbol id="squiggle" viewBox="0 0 120 20">
      <path d="M2 10 Q 12 1, 22 10 T 42 10 T 62 10 T 82 10 T 102 10 T 118 10" fill="none" stroke="currentColor" stroke-width="3" stroke-linecap="round"></path>
    </symbol>
    <symbol id="underline-scribble" viewBox="0 0 160 16">
      <path d="M2 10 C 20 4, 50 14, 80 8 C 110 2, 140 14, 158 6" fill="none" stroke="currentColor" stroke-width="3" stroke-linecap="round"></path>
    </symbol>
    <symbol id="zigzag" viewBox="0 0 120 30">
      <path d="M4 24 L24 6 L44 24 L64 6 L84 24 L104 6 L116 20" fill="none" stroke="currentColor" stroke-width="4" stroke-linecap="round" stroke-linejoin="round"></path>
    </symbol>
    <symbol id="scallop" viewBox="0 0 240 12">
      <path d="M0 12 Q 10 0, 20 12 T 40 12 T 60 12 T 80 12 T 100 12 T 120 12 T 140 12 T 160 12 T 180 12 T 200 12 T 220 12 T 240 12" fill="currentColor"></path>
    </symbol>
  </defs>
</svg>