<svg xmlns="http://www.w3.org/2000/svg" width="0" height="0" style="position:absolute" aria-hidden="true">
  <defs>
    <symbol id="sputnik" viewBox="0 0 100 100">
      <g fill="none" stroke="currentColor" stroke-linecap="round" stroke-linejoin="round">
        <circle cx="50" cy="50" r="4" fill="currentColor" stroke="none"/>
        <path d="M50 50 L50 10 M50 50 L50 90 M50 50 L14 28 M50 50 L86 72 M50 50 L86 28 M50 50 L14 72 M50 50 L9 50 M50 50 L91 50"/>
        <circle cx="50" cy="10" r="6" fill="currentColor" stroke="none"/>
        <circle cx="50" cy="90" r="6" fill="currentColor" stroke="none"/>
        <circle cx="14" cy="28" r="5" fill="currentColor" stroke="none"/>
        <circle cx="86" cy="72" r="5" fill="currentColor" stroke="none"/>
        <circle cx="86" cy="28" r="5" fill="currentColor" stroke="none"/>
        <circle cx="14" cy="72" r="5" fill="currentColor" stroke="none"/>
        <circle cx="9" cy="50" r="5" fill="currentColor" stroke="none"/>
        <circle cx="91" cy="50" r="5" fill="currentColor" stroke="none"/>
      </g>
    </symbol>

    <symbol id="sputnik-color" viewBox="0 0 100 100">
      <g fill="none" stroke="#2c2c2c" stroke-width="2" stroke-linecap="round">
        <path d="M50 50 L50 12 M50 50 L50 88 M50 50 L16 30 M50 50 L84 70 M50 50 L84 30 M50 50 L16 70 M50 50 L10 50 M50 50 L90 50"/>
      </g>
      <circle cx="50" cy="50" r="5" fill="#2c2c2c"/>
      <circle cx="50" cy="12" r="7" fill="#b2dfdb"/>
      <circle cx="50" cy="88" r="7" fill="#ffeb3b"/>
      <circle cx="16" cy="30" r="5" fill="#f45a1d"/>
      <circle cx="84" cy="70" r="5" fill="#00bcd4"/>
      <circle cx="84" cy="30" r="6" fill="#e91e63"/>
      <circle cx="16" cy="70" r="5" fill="#ffeb3b"/>
      <circle cx="10" cy="50" r="5" fill="#2c2c2c"/>
      <circle cx="90" cy="50" r="7" fill="#f45a1d"/>
    </symbol>

    <symbol id="atomic" viewBox="0 0 120 100">
      <g fill="none" stroke="currentColor" stroke-width="4" stroke-linecap="round">
        <ellipse cx="60" cy="50" rx="52" ry="16"/>
        <ellipse cx="60" cy="50" rx="52" ry="16" transform="rotate(60 60 50)"/>
        <ellipse cx="60" cy="50" rx="52" ry="16" transform="rotate(-60 60 50)"/>
      </g>
      <circle cx="60" cy="50" r="7" fill="currentColor"/>
    </symbol>

    <symbol id="boomerang" viewBox="0 0 140 80">
      <path d="M9 58 C45 43, 85 20, 132 8 C104 35, 77 58, 22 70 C14 72, 8 67, 9 58 Z" fill="currentColor"/>
      <path d="M22 58 C58 47, 91 27, 119 15" fill="none" stroke="#fcf9f0" stroke-width="4" stroke-linecap="round" opacity=".75"/>
      <path d="M14 61 C48 50, 84 28, 129 11" fill="none" stroke="#2c2c2c" stroke-width="2" stroke-linecap="round"/>
    </symbol>

    <symbol id="sparkle-four" viewBox="0 0 100 100">
      <path d="M50 4 C55 36, 64 45, 96 50 C64 55, 55 64, 50 96 C45 64, 36 55, 4 50 C36 45, 45 36, 50 4 Z" fill="currentColor"/>
    </symbol>

    <symbol id="sparkle-slim" viewBox="0 0 100 100">
      <path d="M50 3 C53 38, 57 47, 98 50 C57 53, 53 62, 50 97 C47 62, 43 53, 2 50 C43 47, 47 38, 50 3 Z" fill="currentColor"/>
    </symbol>

    <symbol id="starburst" viewBox="0 0 120 120">
      <path d="M60 4 L70 44 L111 20 L78 54 L116 60 L78 66 L111 100 L70 76 L60 116 L50 76 L9 100 L42 66 L4 60 L42 54 L9 20 L50 44 Z" fill="currentColor"/>
    </symbol>

    <symbol id="radial-burst" viewBox="0 0 100 100">
      <g fill="none" stroke="currentColor" stroke-width="3" stroke-linecap="round">
        <path d="M50 8 V34 M50 66 V92 M8 50 H34 M66 50 H92 M20 20 L38 38 M62 62 L80 80 M80 20 L62 38 M38 62 L20 80"/>
      </g>
      <circle cx="50" cy="50" r="7" fill="currentColor"/>
    </symbol>

    <symbol id="diamond" viewBox="0 0 100 100">
      <path d="M50 5 L86 50 L50 95 L14 50 Z" fill="currentColor"/>
    </symbol>

    <symbol id="diamond-line" viewBox="0 0 100 100">
      <path d="M50 8 L84 50 L50 92 L16 50 Z" fill="none" stroke="currentColor" stroke-width="5" stroke-linejoin="round"/>
    </symbol>

    <symbol id="rounded-orbit" viewBox="0 0 100 100">
      <rect x="16" y="16" width="68" height="68" rx="22" fill="none" stroke="currentColor" stroke-width="5"/>
      <rect x="31" y="31" width="38" height="38" rx="14" fill="currentColor"/>
    </symbol>

    <symbol id="oval-orbit" viewBox="0 0 120 80">
      <ellipse cx="60" cy="40" rx="52" ry="24" fill="none" stroke="currentColor" stroke-width="6"/>
      <ellipse cx="60" cy="40" rx="23" ry="12" fill="currentColor"/>
    </symbol>

    <symbol id="ladder" viewBox="0 0 80 140">
      <g fill="none" stroke="currentColor" stroke-width="5" stroke-linecap="round">
        <path d="M40 8 V132"/>
        <path d="M18 18 H62 M14 37 H66 M20 56 H60 M12 75 H68 M18 94 H62 M14 113 H66"/>
      </g>
      <circle cx="40" cy="8" r="6" fill="currentColor"/>
      <circle cx="40" cy="132" r="6" fill="currentColor"/>
    </symbol>

    <symbol id="swoosh" viewBox="0 0 180 72">
      <path d="M8 48 C62 58, 122 40, 170 8 C142 46, 88 73, 8 60 Z" fill="currentColor"/>
      <path d="M12 47 C63 54, 121 37, 162 13" fill="none" stroke="#fcf9f0" stroke-width="4" stroke-linecap="round" opacity=".75"/>
      <path d="M10 58 C80 72, 136 44, 170 8" fill="none" stroke="#2c2c2c" stroke-width="2.5" stroke-linecap="round"/>
    </symbol>

    <symbol id="heart-thick" viewBox="0 0 80 80">
      <path d="M40 70 C12 52,4 34,12 20 C20 8,34 10,40 24 C46 10,60 8,68 20 C76 34,68 52,40 70 Z" fill="currentColor"/>
    </symbol>

    <symbol id="circle-thick" viewBox="0 0 80 80">
      <circle cx="40" cy="40" r="32" fill="currentColor"/>
    </symbol>

    <symbol id="underline-scribble" viewBox="0 0 160 16">
      <path d="M2 10 C20 4,50 14,80 8 C110 2,140 14,158 6" fill="none" stroke="currentColor" stroke-width="3" stroke-linecap="round"/>
    </symbol>
  </defs>
</svg>
