<svg xmlns="http://www.w3.org/2000/svg" viewBox="0 0 220 220" width="220" height="220" aria-label="Art Restart">
  <defs>
    <filter id="ink" x="-20%" y="-20%" width="140%" height="140%">
      <feDropShadow dx="2" dy="3" stdDeviation="1.2" flood-color="#07192b" flood-opacity="0.78"/>
    </filter>
    <linearGradient id="restart-ring" x1="24" y1="156" x2="191" y2="59" gradientUnits="userSpaceOnUse">
      <stop offset="0" stop-color="#27b34a"/>
      <stop offset="0.18" stop-color="#9acd32"/>
      <stop offset="0.34" stop-color="#ffd23f"/>
      <stop offset="0.5" stop-color="#ff7b22"/>
      <stop offset="0.64" stop-color="#f53367"/>
      <stop offset="0.8" stop-color="#7a3fd4"/>
      <stop offset="1" stop-color="#0886d8"/>
    </linearGradient>
  </defs>

  <rect width="220" height="220" fill="none"/>

  <path
    d="M43 151C20 101 47 43 102 25c31-10 66-3 91 17"
    fill="none"
    stroke="#111"
    stroke-width="28"
    stroke-linecap="round"
    opacity="0.92"
  />
  <path
    d="M43 151C20 101 47 43 102 25c31-10 66-3 91 17"
    fill="none"
    stroke="url(#restart-ring)"
    stroke-width="21"
    stroke-linecap="round"
  />
  <path
    d="M165 20 205 43 175 75z"
    fill="#f4432f"
    stroke="#111"
    stroke-width="4"
    stroke-linejoin="round"
  />

  <path
    d="M177 58c30 46 15 108-31 136-34 20-76 17-107-5"
    fill="none"
    stroke="#111"
    stroke-width="27"
    stroke-linecap="round"
    opacity="0.92"
  />
  <path
    d="M177 58c30 46 15 108-31 136-34 20-76 17-107-5"
    fill="none"
    stroke="url(#restart-ring)"
    stroke-width="20"
    stroke-linecap="round"
  />

  <g fill="none" stroke="#111" stroke-width="2" stroke-linecap="round" opacity="0.8">
    <path d="M32 84c7-5 14-8 22-10"/>
    <path d="M58 38c6-6 13-10 21-13"/>
    <path d="M185 91c7 9 10 19 9 30"/>
    <path d="M120 197c-10 2-20 1-29-2"/>
  </g>

  <g transform="translate(47 73) rotate(-2)" filter="url(#ink)">
    <path d="M8 13c24-8 78-9 105 0 8 13 8 38 0 52-27 9-83 9-108-1-7-16-6-37 3-51z" fill="#0b4676"/>
    <path d="M17 19c25-6 69-6 91 1 5 10 5 29 0 38-24 7-71 8-92 0-5-11-4-29 1-39z" fill="#ffffff" opacity="0.16"/>
    <text x="63" y="40" text-anchor="middle" font-family="Space Grotesk, Arial, sans-serif" font-size="31" font-weight="800" fill="#f5f1e8" stroke="#1c3951" stroke-width="1.4" paint-order="stroke">ART</text>
    <text x="63" y="68" text-anchor="middle" font-family="Space Grotesk, Arial, sans-serif" font-size="25" font-weight="800" fill="#f5f1e8" stroke="#1c3951" stroke-width="1.3" paint-order="stroke">RESTART</text>
  </g>

  <g fill="none" stroke="#f5f1e8" stroke-width="2" stroke-linecap="round" opacity="0.82">
    <path d="M62 112c-15-11-30-10-42-1"/>
    <path d="M149 104c16-10 31-10 45 0"/>
    <path d="M77 136c-11 9-12 21-8 34"/>
    <path d="M147 135c10 11 12 24 6 38"/>
  </g>

  <g fill="#0c0c0c" opacity="0.92">
    <circle cx="49" cy="158" r="7"/>
    <path d="M42 188c3-22 10-31 20-26 9 5 9 17 6 29z"/>
    <circle cx="152" cy="156" r="7"/>
    <path d="M142 190c-2-23 5-34 17-29 10 4 14 16 15 29z"/>
    <circle cx="104" cy="162" r="6"/>
    <path d="M94 194c0-21 7-31 18-29 9 2 14 13 15 30z"/>
  </g>

  <g fill="#f5f1e8" opacity="0.88">
    <path d="M62 82c5 9 5 17 0 25-5-8-5-16 0-25z"/>
    <path d="M158 82c5 9 5 17 0 25-5-8-5-16 0-25z"/>
    <circle cx="110" cy="176" r="7"/>
  </g>
</svg>
